<mxfile host="app.diagrams.net" modified="2021-10-22T21:19:52.282Z" agent="5.0 (Windows)" etag="P4RKqYCSjRSjm8x0anL6" version="15.5.8" type="github">
  <diagram id="C5RBs43oDa-KdzZeNtuy" name="Page-1">
    <mxGraphModel dx="1662" dy="780" grid="0" gridSize="10" guides="1" tooltips="1" connect="1" arrows="1" fold="1" page="1" pageScale="1" pageWidth="827" pageHeight="1169" math="0" shadow="0">
      <root>
        <mxCell id="WIyWlLk6GJQsqaUBKTNV-0" />
        <mxCell id="WIyWlLk6GJQsqaUBKTNV-1" parent="WIyWlLk6GJQsqaUBKTNV-0" />
        <mxCell id="PMDkOvvGoAFzmRjh78wa-0" value="&lt;font style=&quot;font-size: 20px&quot; face=&quot;Times New Roman&quot;&gt;Inicio&lt;/font&gt;" style="ellipse;whiteSpace=wrap;html=1;fillColor=#FFC273;" parent="WIyWlLk6GJQsqaUBKTNV-1" vertex="1">
          <mxGeometry x="160" y="78" width="120" height="60" as="geometry" />
        </mxCell>
        <mxCell id="PMDkOvvGoAFzmRjh78wa-1" value="&lt;font style=&quot;font-size: 20px&quot; face=&quot;Times New Roman&quot;&gt;Fin&lt;/font&gt;" style="ellipse;whiteSpace=wrap;html=1;fillColor=#FFF2CC;" parent="WIyWlLk6GJQsqaUBKTNV-1" vertex="1">
          <mxGeometry x="154" y="756" width="120" height="60" as="geometry" />
        </mxCell>
        <mxCell id="PMDkOvvGoAFzmRjh78wa-9" value="" style="edgeStyle=orthogonalEdgeStyle;rounded=0;orthogonalLoop=1;jettySize=auto;html=1;" parent="WIyWlLk6GJQsqaUBKTNV-1" source="PMDkOvvGoAFzmRjh78wa-2" target="PMDkOvvGoAFzmRjh78wa-6" edge="1">
          <mxGeometry relative="1" as="geometry" />
        </mxCell>
        <mxCell id="PMDkOvvGoAFzmRjh78wa-2" value="&lt;div style=&quot;font-size: 14px&quot;&gt;&lt;font style=&quot;font-size: 12px&quot; face=&quot;Times New Roman&quot;&gt;Init I/O&lt;/font&gt;&lt;/div&gt;&lt;div style=&quot;font-size: 14px&quot;&gt;&lt;font style=&quot;font-size: 12px&quot; face=&quot;Times New Roman&quot;&gt;Defino Entradas Salidas y Macros&lt;/font&gt;&lt;br&gt;&lt;/div&gt;" style="shape=parallelogram;perimeter=parallelogramPerimeter;whiteSpace=wrap;html=1;fixedSize=1;size=7.5;" parent="WIyWlLk6GJQsqaUBKTNV-1" vertex="1">
          <mxGeometry x="145.25" y="150" width="149.5" height="70" as="geometry" />
        </mxCell>
        <mxCell id="PMDkOvvGoAFzmRjh78wa-11" value="" style="edgeStyle=orthogonalEdgeStyle;rounded=0;orthogonalLoop=1;jettySize=auto;html=1;" parent="WIyWlLk6GJQsqaUBKTNV-1" source="PMDkOvvGoAFzmRjh78wa-4" target="PMDkOvvGoAFzmRjh78wa-5" edge="1">
          <mxGeometry relative="1" as="geometry" />
        </mxCell>
        <mxCell id="PMDkOvvGoAFzmRjh78wa-4" value="&lt;div style=&quot;font-size: 14px&quot;&gt;&lt;font style=&quot;font-size: 14px&quot; face=&quot;Times New Roman&quot;&gt;LOOP, while&lt;br&gt;&lt;/font&gt;&lt;/div&gt;&lt;div style=&quot;font-size: 14px&quot;&gt;&lt;font style=&quot;font-size: 14px&quot; face=&quot;Times New Roman&quot;&gt;Infinito&lt;br&gt;&lt;/font&gt;&lt;/div&gt;" style="shape=loopLimit;whiteSpace=wrap;html=1;" parent="WIyWlLk6GJQsqaUBKTNV-1" vertex="1">
          <mxGeometry x="170" y="335" width="100" height="50" as="geometry" />
        </mxCell>
        <mxCell id="Hjd4y6y4Ed1vW0f3Qo12-2" value="" style="edgeStyle=orthogonalEdgeStyle;rounded=0;orthogonalLoop=1;jettySize=auto;html=1;" parent="WIyWlLk6GJQsqaUBKTNV-1" source="PMDkOvvGoAFzmRjh78wa-5" target="Hjd4y6y4Ed1vW0f3Qo12-1" edge="1">
          <mxGeometry relative="1" as="geometry" />
        </mxCell>
        <mxCell id="PMDkOvvGoAFzmRjh78wa-5" value="Marca la senal de salida por la compuerta logica correspondiendo la secuencia." style="rounded=1;whiteSpace=wrap;html=1;absoluteArcSize=1;arcSize=14;strokeWidth=1;" parent="WIyWlLk6GJQsqaUBKTNV-1" vertex="1">
          <mxGeometry x="160" y="400" width="120" height="80" as="geometry" />
        </mxCell>
        <mxCell id="Hjd4y6y4Ed1vW0f3Qo12-11" value="" style="edgeStyle=orthogonalEdgeStyle;rounded=0;orthogonalLoop=1;jettySize=auto;html=1;" parent="WIyWlLk6GJQsqaUBKTNV-1" source="PMDkOvvGoAFzmRjh78wa-6" target="PMDkOvvGoAFzmRjh78wa-4" edge="1">
          <mxGeometry relative="1" as="geometry" />
        </mxCell>
        <mxCell id="PMDkOvvGoAFzmRjh78wa-6" value="&lt;font style=&quot;font-size: 13px&quot; face=&quot;Times New Roman&quot;&gt;Inicio la configuracion del Display 7 Seg&lt;br&gt;&lt;/font&gt;" style="rounded=1;whiteSpace=wrap;html=1;absoluteArcSize=1;arcSize=14;strokeWidth=1;" parent="WIyWlLk6GJQsqaUBKTNV-1" vertex="1">
          <mxGeometry x="160" y="240" width="120" height="75" as="geometry" />
        </mxCell>
        <mxCell id="PMDkOvvGoAFzmRjh78wa-8" value="" style="endArrow=classic;html=1;exitX=0.5;exitY=1;exitDx=0;exitDy=0;" parent="WIyWlLk6GJQsqaUBKTNV-1" source="PMDkOvvGoAFzmRjh78wa-0" target="PMDkOvvGoAFzmRjh78wa-2" edge="1">
          <mxGeometry width="50" height="50" relative="1" as="geometry">
            <mxPoint x="270" y="360" as="sourcePoint" />
            <mxPoint x="320" y="310" as="targetPoint" />
          </mxGeometry>
        </mxCell>
        <mxCell id="PMDkOvvGoAFzmRjh78wa-21" value="" style="edgeStyle=orthogonalEdgeStyle;rounded=0;orthogonalLoop=1;jettySize=auto;html=1;exitX=0.5;exitY=1;exitDx=0;exitDy=0;entryX=0.5;entryY=1;entryDx=0;entryDy=0;" parent="WIyWlLk6GJQsqaUBKTNV-1" target="PMDkOvvGoAFzmRjh78wa-14" edge="1">
          <mxGeometry relative="1" as="geometry">
            <mxPoint x="218" y="656.9999999999999" as="sourcePoint" />
          </mxGeometry>
        </mxCell>
        <mxCell id="PMDkOvvGoAFzmRjh78wa-14" value="" style="shape=loopLimit;whiteSpace=wrap;html=1;strokeWidth=1;size=20;rotation=-180;" parent="WIyWlLk6GJQsqaUBKTNV-1" vertex="1">
          <mxGeometry x="159" y="682" width="110" height="60" as="geometry" />
        </mxCell>
        <mxCell id="PMDkOvvGoAFzmRjh78wa-18" style="edgeStyle=orthogonalEdgeStyle;rounded=0;orthogonalLoop=1;jettySize=auto;html=1;entryX=1;entryY=0.5;entryDx=0;entryDy=0;exitX=0;exitY=0.583;exitDx=0;exitDy=0;exitPerimeter=0;" parent="WIyWlLk6GJQsqaUBKTNV-1" source="PMDkOvvGoAFzmRjh78wa-14" target="PMDkOvvGoAFzmRjh78wa-4" edge="1">
          <mxGeometry relative="1" as="geometry">
            <mxPoint x="283" y="525" as="sourcePoint" />
            <Array as="points">
              <mxPoint x="269" y="714" />
              <mxPoint x="311" y="714" />
              <mxPoint x="311" y="360" />
            </Array>
          </mxGeometry>
        </mxCell>
        <mxCell id="PMDkOvvGoAFzmRjh78wa-17" value="Salida secuencial e indicacion LED" style="text;html=1;strokeColor=none;fillColor=none;align=center;verticalAlign=middle;whiteSpace=wrap;rounded=0;" parent="WIyWlLk6GJQsqaUBKTNV-1" vertex="1">
          <mxGeometry x="167" y="702" width="92" height="19" as="geometry" />
        </mxCell>
        <mxCell id="PMDkOvvGoAFzmRjh78wa-23" value="" style="endArrow=classic;html=1;exitX=0.5;exitY=0;exitDx=0;exitDy=0;entryX=0.5;entryY=0;entryDx=0;entryDy=0;" parent="WIyWlLk6GJQsqaUBKTNV-1" source="PMDkOvvGoAFzmRjh78wa-14" target="PMDkOvvGoAFzmRjh78wa-1" edge="1">
          <mxGeometry width="50" height="50" relative="1" as="geometry">
            <mxPoint x="264" y="592" as="sourcePoint" />
            <mxPoint x="314" y="542" as="targetPoint" />
          </mxGeometry>
        </mxCell>
        <mxCell id="pPsKDm1aZ1uGiD8XLSHk-2" value="" style="endArrow=classic;html=1;exitX=0.956;exitY=0.092;exitDx=0;exitDy=0;exitPerimeter=0;" parent="WIyWlLk6GJQsqaUBKTNV-1" source="pPsKDm1aZ1uGiD8XLSHk-0" edge="1">
          <mxGeometry width="50" height="50" relative="1" as="geometry">
            <mxPoint x="595.4050000000001" y="247.03200000000004" as="sourcePoint" />
            <mxPoint x="619" y="247" as="targetPoint" />
          </mxGeometry>
        </mxCell>
        <mxCell id="pPsKDm1aZ1uGiD8XLSHk-0" value="MCU&lt;br&gt;&lt;div&gt;ATMEGA328P&lt;/div&gt;" style="rounded=1;whiteSpace=wrap;html=1;fillColor=#A9C4EB;" parent="WIyWlLk6GJQsqaUBKTNV-1" vertex="1">
          <mxGeometry x="460" y="233" width="135" height="152" as="geometry" />
        </mxCell>
        <mxCell id="pPsKDm1aZ1uGiD8XLSHk-3" value="SegA" style="text;html=1;strokeColor=none;fillColor=none;align=center;verticalAlign=middle;whiteSpace=wrap;rounded=0;" parent="WIyWlLk6GJQsqaUBKTNV-1" vertex="1">
          <mxGeometry x="617" y="236" width="40" height="20" as="geometry" />
        </mxCell>
        <mxCell id="pPsKDm1aZ1uGiD8XLSHk-4" value="" style="endArrow=classic;html=1;exitX=1.003;exitY=0.191;exitDx=0;exitDy=0;exitPerimeter=0;" parent="WIyWlLk6GJQsqaUBKTNV-1" edge="1">
          <mxGeometry width="50" height="50" relative="1" as="geometry">
            <mxPoint x="595.405" y="261.0319999999999" as="sourcePoint" />
            <mxPoint x="619" y="261" as="targetPoint" />
            <Array as="points">
              <mxPoint x="595" y="261" />
            </Array>
          </mxGeometry>
        </mxCell>
        <mxCell id="pPsKDm1aZ1uGiD8XLSHk-5" value="SegB" style="text;html=1;strokeColor=none;fillColor=none;align=center;verticalAlign=middle;whiteSpace=wrap;rounded=0;" parent="WIyWlLk6GJQsqaUBKTNV-1" vertex="1">
          <mxGeometry x="617" y="251" width="40" height="20" as="geometry" />
        </mxCell>
        <mxCell id="pPsKDm1aZ1uGiD8XLSHk-6" value="" style="endArrow=classic;html=1;exitX=1.003;exitY=0.191;exitDx=0;exitDy=0;exitPerimeter=0;" parent="WIyWlLk6GJQsqaUBKTNV-1" edge="1">
          <mxGeometry width="50" height="50" relative="1" as="geometry">
            <mxPoint x="595.005" y="276.0319999999999" as="sourcePoint" />
            <mxPoint x="618.6" y="276" as="targetPoint" />
          </mxGeometry>
        </mxCell>
        <mxCell id="pPsKDm1aZ1uGiD8XLSHk-7" value="SegC" style="text;html=1;strokeColor=none;fillColor=none;align=center;verticalAlign=middle;whiteSpace=wrap;rounded=0;" parent="WIyWlLk6GJQsqaUBKTNV-1" vertex="1">
          <mxGeometry x="616.6" y="266" width="40" height="20" as="geometry" />
        </mxCell>
        <mxCell id="pPsKDm1aZ1uGiD8XLSHk-8" value="" style="endArrow=classic;html=1;exitX=1.003;exitY=0.191;exitDx=0;exitDy=0;exitPerimeter=0;" parent="WIyWlLk6GJQsqaUBKTNV-1" edge="1">
          <mxGeometry width="50" height="50" relative="1" as="geometry">
            <mxPoint x="595.005" y="291.0319999999999" as="sourcePoint" />
            <mxPoint x="618.6" y="291" as="targetPoint" />
          </mxGeometry>
        </mxCell>
        <mxCell id="pPsKDm1aZ1uGiD8XLSHk-9" value="SegD" style="text;html=1;strokeColor=none;fillColor=none;align=center;verticalAlign=middle;whiteSpace=wrap;rounded=0;" parent="WIyWlLk6GJQsqaUBKTNV-1" vertex="1">
          <mxGeometry x="616.6" y="281" width="40.4" height="20" as="geometry" />
        </mxCell>
        <mxCell id="pPsKDm1aZ1uGiD8XLSHk-10" value="" style="endArrow=classic;html=1;exitX=1.003;exitY=0.191;exitDx=0;exitDy=0;exitPerimeter=0;" parent="WIyWlLk6GJQsqaUBKTNV-1" edge="1">
          <mxGeometry width="50" height="50" relative="1" as="geometry">
            <mxPoint x="436.405" y="251.03199999999993" as="sourcePoint" />
            <mxPoint x="460" y="251" as="targetPoint" />
          </mxGeometry>
        </mxCell>
        <mxCell id="pPsKDm1aZ1uGiD8XLSHk-12" value="" style="endArrow=classic;html=1;exitX=1.003;exitY=0.191;exitDx=0;exitDy=0;exitPerimeter=0;" parent="WIyWlLk6GJQsqaUBKTNV-1" edge="1">
          <mxGeometry width="50" height="50" relative="1" as="geometry">
            <mxPoint x="436.405" y="265.0319999999999" as="sourcePoint" />
            <mxPoint x="460" y="265" as="targetPoint" />
          </mxGeometry>
        </mxCell>
        <mxCell id="PASzGmPntYDD7dlqIaRi-0" value="&lt;div&gt;DISPLAY&lt;br&gt;&lt;/div&gt;&lt;div&gt;7SEG&lt;/div&gt;" style="rounded=1;whiteSpace=wrap;html=1;fillColor=#F19C99;" parent="WIyWlLk6GJQsqaUBKTNV-1" vertex="1">
          <mxGeometry x="656.6" y="240" width="55.4" height="63" as="geometry" />
        </mxCell>
        <mxCell id="PASzGmPntYDD7dlqIaRi-1" value="" style="endArrow=classic;html=1;exitX=1.003;exitY=0.191;exitDx=0;exitDy=0;exitPerimeter=0;" parent="WIyWlLk6GJQsqaUBKTNV-1" edge="1">
          <mxGeometry width="50" height="50" relative="1" as="geometry">
            <mxPoint x="595.005" y="339.0319999999999" as="sourcePoint" />
            <mxPoint x="618.6" y="339" as="targetPoint" />
          </mxGeometry>
        </mxCell>
        <mxCell id="PASzGmPntYDD7dlqIaRi-2" value="LED ID" style="rounded=1;whiteSpace=wrap;html=1;fillColor=#FFF2CC;" parent="WIyWlLk6GJQsqaUBKTNV-1" vertex="1">
          <mxGeometry x="621" y="327" width="61" height="20" as="geometry" />
        </mxCell>
        <mxCell id="Hjd4y6y4Ed1vW0f3Qo12-5" value="" style="edgeStyle=orthogonalEdgeStyle;rounded=0;orthogonalLoop=1;jettySize=auto;html=1;" parent="WIyWlLk6GJQsqaUBKTNV-1" source="Hjd4y6y4Ed1vW0f3Qo12-1" target="Hjd4y6y4Ed1vW0f3Qo12-4" edge="1">
          <mxGeometry relative="1" as="geometry" />
        </mxCell>
        <mxCell id="Hjd4y6y4Ed1vW0f3Qo12-1" value="Salida Display" style="shape=parallelogram;perimeter=parallelogramPerimeter;whiteSpace=wrap;html=1;fixedSize=1;" parent="WIyWlLk6GJQsqaUBKTNV-1" vertex="1">
          <mxGeometry x="160" y="492" width="120" height="48" as="geometry" />
        </mxCell>
        <mxCell id="Hjd4y6y4Ed1vW0f3Qo12-7" value="" style="edgeStyle=orthogonalEdgeStyle;rounded=0;orthogonalLoop=1;jettySize=auto;html=1;" parent="WIyWlLk6GJQsqaUBKTNV-1" source="Hjd4y6y4Ed1vW0f3Qo12-4" target="Hjd4y6y4Ed1vW0f3Qo12-6" edge="1">
          <mxGeometry relative="1" as="geometry" />
        </mxCell>
        <mxCell id="Hjd4y6y4Ed1vW0f3Qo12-4" value="Identificador LED" style="shape=parallelogram;perimeter=parallelogramPerimeter;whiteSpace=wrap;html=1;fixedSize=1;size=12.862068965517267;" parent="WIyWlLk6GJQsqaUBKTNV-1" vertex="1">
          <mxGeometry x="160" y="552" width="120" height="48" as="geometry" />
        </mxCell>
        <mxCell id="Hjd4y6y4Ed1vW0f3Qo12-6" value="Interruptores definen la Secuencia" style="shape=parallelogram;perimeter=parallelogramPerimeter;whiteSpace=wrap;html=1;fixedSize=1;size=10.620689655172498;" parent="WIyWlLk6GJQsqaUBKTNV-1" vertex="1">
          <mxGeometry x="142" y="612" width="152" height="54" as="geometry" />
        </mxCell>
        <mxCell id="0MZ3Itoopk5c32XeHWrM-0" value="Interruptor 1" style="text;html=1;strokeColor=none;fillColor=none;align=center;verticalAlign=middle;whiteSpace=wrap;rounded=0;" parent="WIyWlLk6GJQsqaUBKTNV-1" vertex="1">
          <mxGeometry x="363.4" y="240" width="74" height="20" as="geometry" />
        </mxCell>
        <mxCell id="0MZ3Itoopk5c32XeHWrM-2" value="Interruptor 2" style="text;html=1;strokeColor=none;fillColor=none;align=center;verticalAlign=middle;whiteSpace=wrap;rounded=0;" parent="WIyWlLk6GJQsqaUBKTNV-1" vertex="1">
          <mxGeometry x="363.4" y="256" width="74" height="20" as="geometry" />
        </mxCell>
      </root>
    </mxGraphModel>
  </diagram>
</mxfile>
